<?xml version="1.0" encoding="UTF-8"?>
<!-- Generated by Pixelmator Pro 3.7 -->
<svg width="104" height="104" viewBox="0 0 104 104" xmlns="http://www.w3.org/2000/svg">
    <g id="marker-off">
        <filter id="filter1" x="0" y="0" width="104" height="104" filterUnits="userSpaceOnUse" primitiveUnits="userSpaceOnUse" color-interpolation-filters="sRGB">
            <feGaussianBlur stdDeviation="5"/>
            <feOffset dx="-0" dy="2" result="offsetblur"/>
            <feFlood flood-color="#000000" flood-opacity="0.5"/>
            <feComposite in2="offsetblur" operator="in"/>
            <feMerge>
                <feMergeNode/>
                <feMergeNode in="SourceGraphic"/>
            </feMerge>
        </filter>
        <path id="Button-Background" fill="#718093" fill-rule="evenodd" stroke="none" filter="url(#filter1)" d="M 7 71 C 7 84.254837 17.745167 95 31 95 L 73 95 C 86.254837 95 97 84.254837 97 71 L 97 29 C 97 15.745163 86.254837 5 73 5 L 31 5 C 17.745167 5 7 15.745163 7 29 Z"/>
        <path id="solar--bookmark-bold" fill="#ffffff" fill-rule="evenodd" stroke="none" d="M 76 47.594666 L 76 60.909332 C 76 69.165329 76 73.295998 74.042664 75.098671 C 73.109329 75.959999 71.930664 76.501335 70.674667 76.645332 C 68.042664 76.946663 64.968002 74.226662 58.821331 68.789337 C 56.101334 66.386673 54.743999 65.183998 53.173332 64.869331 C 52.399094 64.711288 51.600906 64.711288 50.826668 64.869331 C 49.253334 65.183998 47.896004 66.386673 45.178665 68.789337 C 39.031998 74.226662 35.957333 76.946663 33.325333 76.642662 C 32.067394 76.497986 30.887974 75.957298 29.957333 75.098671 C 28 73.295998 28 69.167999 28 60.909332 L 28 47.591999 C 28 36.159996 28 30.442665 31.514668 26.888 C 35.029335 23.333328 40.688 23.333328 52 23.333328 C 63.312 23.333328 68.970673 23.333328 72.485336 26.88533 C 76 30.437332 76 36.159996 76 47.594666 M 42 34 C 42 32.895432 42.895432 32 44 32 L 60 32 C 61.104568 32 62 32.895432 62 34 C 62 35.104568 61.104568 36 60 36 L 44 36 C 42.895432 36 42 35.104568 42 34"/>
    </g>
</svg>
