<?xml version="1.0" encoding="UTF-8"?>
<!-- Generated by Pixelmator Pro 3.7 -->
<svg width="104" height="104" viewBox="0 0 104 104" xmlns="http://www.w3.org/2000/svg">
    <g id="playback-track-off">
        <filter id="filter1" x="0" y="0" width="104" height="104" filterUnits="userSpaceOnUse" primitiveUnits="userSpaceOnUse" color-interpolation-filters="sRGB">
            <feGaussianBlur stdDeviation="5"/>
            <feOffset dx="-0" dy="2" result="offsetblur"/>
            <feFlood flood-color="#000000" flood-opacity="0.5"/>
            <feComposite in2="offsetblur" operator="in"/>
            <feMerge>
                <feMergeNode/>
                <feMergeNode in="SourceGraphic"/>
            </feMerge>
        </filter>
        <path id="Button-Background" fill="#718093" fill-rule="evenodd" stroke="none" filter="url(#filter1)" d="M 7 71 C 7 84.254837 17.745167 95 31 95 L 73 95 C 86.254837 95 97 84.254837 97 71 L 97 29 C 97 15.745163 86.254837 5 73 5 L 31 5 C 17.745167 5 7 15.745163 7 29 Z"/>
        <g id="solar--playlist-bold1">
            <path id="Path" fill="#ffffff" fill-rule="evenodd" stroke="none" d="M 26 34 C 26 32.895432 26.89543 32 28 32 L 76 32 C 77.104568 32 78 32.895432 78 34 C 78 35.104568 77.104568 36 76 36 L 28 36 C 26.89543 36 26 35.104568 26 34 M 26 44.666668 C 26 43.562099 26.89543 42.666668 28 42.666668 L 76 42.666668 C 77.104568 42.666668 78 43.562099 78 44.666668 C 78 45.771236 77.104568 46.666668 76 46.666668 L 28 46.666668 C 26.89543 46.666668 26 45.771236 26 44.666668 M 26 55.333336 C 26 54.228767 26.89543 53.333336 28 53.333336 L 49.333336 53.333336 C 50.437904 53.333336 51.333336 54.228767 51.333336 55.333336 C 51.333336 56.437904 50.437904 57.333336 49.333336 57.333336 L 28 57.333336 C 26.89543 57.333336 26 56.437904 26 55.333336 M 26 66 C 26 64.895432 26.89543 64 28 64 L 49.333336 64 C 50.437904 64 51.333336 64.895432 51.333336 66 C 51.333336 67.104568 50.437904 68 49.333336 68 L 28 68 C 26.89543 68 26 67.104568 26 66"/>
            <path id="path1" fill="#ffffff" stroke="none" d="M 70.333328 55.647999 C 74.743996 58.194664 76.946663 59.46933 77.271996 61.304001 C 77.353043 61.763565 77.353043 62.233768 77.271996 62.693333 C 76.949333 64.533333 74.743996 65.805328 70.333328 68.352005 C 65.922668 70.898666 63.720001 72.170662 61.965336 71.53334 C 61.527096 71.374084 61.120083 71.139435 60.762669 70.839996 C 59.333332 69.639999 59.333332 67.093338 59.333332 62 C 59.333332 56.906666 59.333332 54.362663 60.762669 53.162666 C 61.119999 52.861332 61.528 52.629333 61.965336 52.46933 C 63.717331 51.82933 65.922668 53.103996 70.333328 55.647999"/>
        </g>
    </g>
</svg>
