<?xml version="1.0" encoding="UTF-8"?>
<!-- Generated by Pixelmator Pro 3.7 -->
<svg width="104" height="104" viewBox="0 0 104 104" xmlns="http://www.w3.org/2000/svg">
    <g id="playback-no-track-off">
        <filter id="filter1" x="0" y="0" width="104" height="104" filterUnits="userSpaceOnUse" primitiveUnits="userSpaceOnUse" color-interpolation-filters="sRGB">
            <feGaussianBlur stdDeviation="5"/>
            <feOffset dx="-0" dy="2" result="offsetblur"/>
            <feFlood flood-color="#000000" flood-opacity="0.5"/>
            <feComposite in2="offsetblur" operator="in"/>
            <feMerge>
                <feMergeNode/>
                <feMergeNode in="SourceGraphic"/>
            </feMerge>
        </filter>
        <path id="Button-Background" fill="#718093" fill-rule="evenodd" stroke="none" filter="url(#filter1)" d="M 7 71 C 7 84.254837 17.745167 95 31 95 L 73 95 C 86.254837 95 97 84.254837 97 71 L 97 29 C 97 15.745163 86.254837 5 73 5 L 31 5 C 17.745167 5 7 15.745163 7 29 Z"/>
        <path id="solar--play-bold" fill="#ffffff" stroke="none" d="M 77.090668 42.941334 C 79.700584 44.329235 81.33168 47.044003 81.33168 50 C 81.33168 52.955997 79.700584 55.670765 77.090668 57.058666 L 42.925335 75.637337 C 37.424 78.631996 30.666668 74.73867 30.666668 68.581329 L 30.666668 31.421333 C 30.666668 25.26133 37.424 21.370667 42.925335 24.360001 Z"/>
    </g>
</svg>
