<?xml version="1.0" encoding="UTF-8"?>
<!-- Generated by Pixelmator Pro 3.7 -->
<svg width="104" height="104" viewBox="0 0 104 104" xmlns="http://www.w3.org/2000/svg">
    <g id="recording-on">
        <filter id="filter1" x="0" y="0" width="104" height="104" filterUnits="userSpaceOnUse" primitiveUnits="userSpaceOnUse" color-interpolation-filters="sRGB">
            <feGaussianBlur stdDeviation="5"/>
            <feOffset dx="-0" dy="2" result="offsetblur"/>
            <feFlood flood-color="#000000" flood-opacity="0.5"/>
            <feComposite in2="offsetblur" operator="in"/>
            <feMerge>
                <feMergeNode/>
                <feMergeNode in="SourceGraphic"/>
            </feMerge>
        </filter>
        <path id="Button-Background" fill="#c23616" fill-rule="evenodd" stroke="none" filter="url(#filter1)" d="M 7 71 C 7 84.254837 17.745167 95 31 95 L 73 95 C 86.254837 95 97 84.254837 97 71 L 97 29 C 97 15.745163 86.254837 5 73 5 L 31 5 C 17.745167 5 7 15.745163 7 29 Z"/>
        <g id="solar--record-bold-duotone">
            <path id="Path" fill="#ffffff" stroke="none" opacity="0.5" d="M 70.666672 50 C 70.666672 60.309315 62.309315 68.666672 52 68.666672 C 41.690685 68.666672 33.333332 60.309315 33.333332 50 C 33.333332 39.690681 41.690685 31.333328 52 31.333328 C 62.309315 31.333328 70.666672 39.690681 70.666672 50 Z"/>
            <path id="path1" fill="#ffffff" fill-rule="evenodd" stroke="none" d="M 52 76.666664 C 66.728004 76.666664 78.666672 64.727997 78.666672 50 C 78.666672 35.271996 66.728004 23.333328 52 23.333328 C 37.272003 23.333328 25.333334 35.271996 25.333334 50 C 25.333334 64.727997 37.272003 76.666664 52 76.666664 M 52 68.666672 C 62.309315 68.666672 70.666672 60.309315 70.666672 50 C 70.666672 39.690681 62.309315 31.333328 52 31.333328 C 41.690685 31.333328 33.333332 39.690681 33.333332 50 C 33.333332 60.309315 41.690685 68.666672 52 68.666672"/>
        </g>
    </g>
</svg>
