<?xml version="1.0" encoding="UTF-8"?>
<!-- Generated by Pixelmator Pro 3.7 -->
<svg width="104" height="104" viewBox="0 0 104 104" xmlns="http://www.w3.org/2000/svg">
    <g id="reconnect-on">
        <filter id="filter1" x="0" y="0" width="104" height="104" filterUnits="userSpaceOnUse" primitiveUnits="userSpaceOnUse" color-interpolation-filters="sRGB">
            <feGaussianBlur stdDeviation="5"/>
            <feOffset dx="-0" dy="2" result="offsetblur"/>
            <feFlood flood-color="#000000" flood-opacity="0.5"/>
            <feComposite in2="offsetblur" operator="in"/>
            <feMerge>
                <feMergeNode/>
                <feMergeNode in="SourceGraphic"/>
            </feMerge>
        </filter>
        <path id="Button-Background" fill="#0097e6" fill-rule="evenodd" stroke="none" filter="url(#filter1)" d="M 7 71 C 7 84.254837 17.745167 95 31 95 L 73 95 C 86.254837 95 97 84.254837 97 71 L 97 29 C 97 15.745163 86.254837 5 73 5 L 31 5 C 17.745167 5 7 15.745163 7 29 Z"/>
        <path id="solar--refresh-bold" fill="#ffffff" stroke="none" d="M 52.210667 24 C 39.426666 24 28.92 33.768005 27.896 46.221333 L 25.333334 46.221333 C 24.5224 46.220951 23.791502 46.710285 23.482885 47.460194 C 23.174271 48.21011 23.34903 49.072151 23.925333 49.642666 L 28.405334 54.085335 C 29.18494 54.858135 30.441729 54.858135 31.221334 54.085335 L 35.701332 49.642666 C 36.277637 49.072151 36.4524 48.21011 36.143784 47.460194 C 35.835167 46.710285 35.104267 46.220951 34.293335 46.221333 L 31.912001 46.221333 C 32.925335 36.005333 41.613335 28 52.210667 28 C 59.31538 27.986298 65.91687 31.665237 69.64267 37.714668 C 70.007637 38.343124 70.684784 38.724144 71.411392 38.709892 C 72.137993 38.695641 72.799683 38.288368 73.139732 37.646088 C 73.479782 37.003807 73.444664 36.227615 73.048004 35.618668 C 68.595047 28.387306 60.705761 23.987762 52.213333 24 M 75.576004 45.911999 C 74.797028 45.142719 73.544312 45.142719 72.765335 45.911999 L 68.26667 50.354668 C 67.688789 50.924576 67.512634 51.787216 67.820808 52.538063 C 68.128983 53.288914 68.860374 53.779064 69.672005 53.778667 L 72.069336 53.778667 C 71.050667 63.992001 62.333332 72 51.685333 72 C 44.558887 72.018372 37.932537 68.340317 34.178665 62.282669 C 33.5984 61.342312 32.365688 61.0504 31.425335 61.630669 C 30.484978 62.210934 30.193068 63.443645 30.773335 64.384003 C 35.256153 71.622345 43.171288 76.018974 51.685333 76 C 64.506668 76 75.05867 66.240005 76.085335 53.778667 L 78.666672 53.778667 C 79.478302 53.779064 80.209686 53.288914 80.517868 52.538063 C 80.826035 51.787216 80.649887 50.924576 80.072006 50.354668 Z"/>
    </g>
</svg>
